<?xml version="1.0" standalone="no"?><!DOCTYPE svg PUBLIC "-//W3C//DTD SVG 1.1//EN" "http://www.w3.org/Graphics/SVG/1.1/DTD/svg11.dtd"><svg class="icon" width="200px" height="200.00px" viewBox="0 0 1024 1024" version="1.1" xmlns="http://www.w3.org/2000/svg"><path fill="#333333" d="M128 124.032c-35.328 0-64 26.88-64 59.968v720c0 33.152 28.672 60.032 64 60.032h768c35.328 0 64-26.88 64-60.032V184c0-33.152-28.672-60.032-64-60.032H128zM128 64h768c70.72 0 128 53.76 128 120v720C1024 970.304 966.72 1024 896 1024H128c-70.72 0-128-53.76-128-120V184C0 117.696 57.28 64 128 64z"  /><path fill="#333333" d="M960 288a32 32 0 1 1 0 64H64a32 32 0 0 1 0-64h896zM288 32a32 32 0 0 1 64 0v128a32 32 0 0 1-64 0v-128zM672 32a32 32 0 1 1 64 0v128a32 32 0 1 1-64 0v-128zM768 544a32 32 0 1 1 0 64H256a32 32 0 0 1 0-64h512zM768 704a32 32 0 1 1 0 64H256a32 32 0 1 1 0-64h512z"  /></svg>