<?xml version="1.0" standalone="no"?><!DOCTYPE svg PUBLIC "-//W3C//DTD SVG 1.1//EN" "http://www.w3.org/Graphics/SVG/1.1/DTD/svg11.dtd"><svg t="1649132240458" class="icon" viewBox="0 0 1024 1024" version="1.1" xmlns="http://www.w3.org/2000/svg" p-id="5623" xmlns:xlink="http://www.w3.org/1999/xlink" width="200" height="200"><defs><style type="text/css">@font-face { font-family: feedback-iconfont; src: url("//at.alicdn.com/t/font_1031158_u69w8yhxdu.woff2?t=1630033759944") format("woff2"), url("//at.alicdn.com/t/font_1031158_u69w8yhxdu.woff?t=1630033759944") format("woff"), url("//at.alicdn.com/t/font_1031158_u69w8yhxdu.ttf?t=1630033759944") format("truetype"); }
</style></defs><path d="M812.46 65.19H278.21c-65.51 0-118.8 53.3-118.8 118.8v228.66h-35.38c-17.28 0-31.28 14.01-31.28 31.28s14.01 31.28 31.28 31.28h35.38v71.68h-35.38c-17.28 0-31.28 14.01-31.28 31.28 0 17.28 14.01 31.28 31.28 31.28h35.38v230.53c0 65.51 53.3 118.8 118.8 118.8h534.25c65.51 0 118.8-53.3 118.8-118.8V183.99c0-65.51-53.29-118.8-118.8-118.8z m39.6 774.82c0 21.84-17.76 39.6-39.6 39.6H278.21c-21.84 0-39.6-17.76-39.6-39.6V609.47h35.38c17.28 0 31.28-14.01 31.28-31.28 0-17.28-14.01-31.28-31.28-31.28h-35.38v-71.68h35.38c17.28 0 31.28-14.01 31.28-31.28s-14.01-31.28-31.28-31.28h-35.38V183.99c0-21.84 17.76-39.6 39.6-39.6h534.25c21.84 0 39.6 17.76 39.6 39.6v656.02z" p-id="5624" fill="#eeeeee"></path><path d="M684.48 372.85c-14.42-14.42-37.79-14.42-52.2 0l-86.95 86.95-86.95-86.95c-14.42-14.42-37.79-14.42-52.2 0-14.42 14.42-14.42 37.79 0 52.2L493.13 512l-86.95 86.95c-14.42 14.42-14.42 37.79 0 52.2 7.21 7.21 16.65 10.81 26.1 10.81s18.89-3.6 26.1-10.81l86.95-86.95 86.95 86.95c7.21 7.21 16.66 10.81 26.1 10.81 9.45 0 18.89-3.6 26.1-10.81 14.42-14.42 14.42-37.79 0-52.2L597.54 512l86.95-86.95c14.41-14.41 14.41-37.79-0.01-52.2z" p-id="5625" fill="#eeeeee"></path></svg>