<?xml version="1.0" standalone="no"?><!DOCTYPE svg PUBLIC "-//W3C//DTD SVG 1.1//EN" "http://www.w3.org/Graphics/SVG/1.1/DTD/svg11.dtd"><svg class="icon" width="200px" height="200.00px" viewBox="0 0 1024 1024" version="1.1" xmlns="http://www.w3.org/2000/svg"><path d="M814.836 380.717c13.807 0 25-11.193 25-25v-141.14c0-12.741-9.581-23.443-22.244-24.848-3.328-0.368-82.567-8.721-175.057 18.85-49.022 14.615-107.097 50.455-132.839 67.3-26.89-17.513-82.923-51.708-130.879-66.006-92.487-27.571-171.728-19.217-175.055-18.849-12.663 1.405-22.244 12.107-22.244 24.848v139.845c0 13.807 11.193 25 25 25s25-11.193 25-25V239.659c27.719-0.405 78.121 1.765 133.014 18.13 39.17 11.679 91.388 42.508 121.144 62.113v444.535c-27.957-17.152-67.228-38.303-106.929-50.01-55.999-16.516-114.365-19.439-147.229-19.541V572.274c0-13.808-11.193-25-25-25s-25 11.192-25 25v148.171a25.005 25.005 0 0 0 7.885 18.224 25.037 25.037 0 0 0 18.682 6.728c0.814-0.052 82.41-4.868 156.52 16.988 63.899 18.842 130.411 68.317 131.065 68.808a24.987 24.987 0 0 0 15.009 5.005c3.81 0 7.638-0.87 11.174-2.638a24.971 24.971 0 0 0 8.623-7.123c16.423-11.639 72.249-49.417 126.273-65.349 73.808-21.766 155.717-17.039 156.521-16.987a25.045 25.045 0 0 0 18.682-6.729 25 25 0 0 0 7.885-18.223V572.275c0-13.808-11.193-25-25-25-13.808 0-25 11.192-25 25V693.59c-32.864 0.103-91.231 3.026-147.229 19.54-39.627 11.686-78.941 32.866-106.93 50.033V318.659c22.821-14.973 77.732-49.222 121.144-62.164 54.905-16.368 105.318-18.535 133.016-18.132v117.354c-0.002 13.807 11.19 25 24.998 25z" fill="#464899" /><path d="M768.098 468.271c0 32.028 28.468 57.993 63.584 57.993V410.279c-35.117 0-63.584 25.964-63.584 57.992M250.227 468.271c0-32.028-28.469-57.992-63.585-57.992v115.985c35.116 0.001 63.585-25.964 63.585-57.993" fill="#E84C57" /></svg>