<?xml version="1.0" standalone="no"?><!DOCTYPE svg PUBLIC "-//W3C//DTD SVG 1.1//EN" "http://www.w3.org/Graphics/SVG/1.1/DTD/svg11.dtd"><svg t="1649132317445" class="icon" viewBox="0 0 1024 1024" version="1.1" xmlns="http://www.w3.org/2000/svg" p-id="7448" xmlns:xlink="http://www.w3.org/1999/xlink" width="200" height="200"><defs><style type="text/css">@font-face { font-family: feedback-iconfont; src: url("//at.alicdn.com/t/font_1031158_u69w8yhxdu.woff2?t=1630033759944") format("woff2"), url("//at.alicdn.com/t/font_1031158_u69w8yhxdu.woff?t=1630033759944") format("woff"), url("//at.alicdn.com/t/font_1031158_u69w8yhxdu.ttf?t=1630033759944") format("truetype"); }
</style></defs><path d="M617.57 388.25H407.95c-153.75 0-279.55 125.8-279.55 279.56v17.38c0 81.12 66.36 147.49 147.48 147.49h473.76c81.11 0 147.49-66.37 147.49-147.49v-17.38c0-153.76-125.81-279.56-279.56-279.56z m-46.55 277.24H454.49c-30.25 0-55.03-24.76-55.03-55.02s24.77-55.02 55.03-55.02h116.52c30.27 0 55.03 24.76 55.03 55.02s-24.76 55.02-55.02 55.02z" p-id="7449"></path><path d="M515.94 211.22m-147.27 0a147.27 147.27 0 1 0 294.54 0 147.27 147.27 0 1 0-294.54 0Z" p-id="7450"></path></svg>