<?xml version="1.0" standalone="no"?><!DOCTYPE svg PUBLIC "-//W3C//DTD SVG 1.1//EN" "http://www.w3.org/Graphics/SVG/1.1/DTD/svg11.dtd"><svg t="1643814516477" class="icon" viewBox="0 0 1024 1024" version="1.1" xmlns="http://www.w3.org/2000/svg" p-id="2299" xmlns:xlink="http://www.w3.org/1999/xlink" width="200" height="200"><defs><style type="text/css"></style></defs><path d="M711.78 915.83c-6.42 0-12.86-1.31-18.98-3.96L500.43 828.8c-14.7-6.35-21.48-23.42-15.13-38.12 6.35-14.7 23.42-21.48 38.12-15.13l180.13 77.78L805.34 149.3 169.06 624.39l143.45 61.48c14.72 6.31 21.54 23.36 15.23 38.08-6.31 14.72-23.36 21.54-38.08 15.23l-159.72-68.45c-15.65-6.71-26.62-21.38-28.63-38.29s5.22-33.74 18.86-43.93l670.2-500.42c15.54-11.6 36.35-12.69 53.02-2.78s25.65 28.72 22.87 47.92L759.04 874.84c-2.15 14.84-10.89 27.56-23.98 34.88-7.27 4.06-15.25 6.11-23.28 6.11z" p-id="2300"></path><path d="M410.27 930.67c-5.65 0-11.35-1.07-16.82-3.27-16.92-6.8-27.98-22.97-28.2-41.2l-1.37-116.7c-0.2-17.31 4.81-34.04 14.51-48.37L790.73 111.9c8.98-13.26 27.01-16.74 40.27-7.76 13.26 8.98 16.74 27.01 7.76 40.27L426.43 753.63c-3.04 4.5-4.62 9.75-4.55 15.2l1 85.36 69.71-71.03c11.22-11.43 29.58-11.6 41.01-0.38 11.43 11.22 11.6 29.58 0.38 41.01l-91.67 93.39c-8.63 8.8-20.21 13.49-32.04 13.49z m12.98-45.15z" p-id="2301"></path></svg>