<?xml version="1.0" standalone="no"?><!DOCTYPE svg PUBLIC "-//W3C//DTD SVG 1.1//EN" "http://www.w3.org/Graphics/SVG/1.1/DTD/svg11.dtd"><svg class="icon" width="200px" height="200.00px" viewBox="0 0 1024 1024" version="1.1" xmlns="http://www.w3.org/2000/svg"><path fill="#333333" d="M907.712 642.592l-2.624-302.592-204.256 145.056 206.88 157.536z m-39.68-354.784a64 64 0 0 1 101.056 51.648l2.624 302.592a64 64 0 0 1-102.752 51.456l-206.912-157.536a64 64 0 0 1 1.728-103.104l204.256-145.056zM144 256a32 32 0 0 0-32 32v417.376a32 32 0 0 0 32 32h456.32a32 32 0 0 0 32-32V288a32 32 0 0 0-32-32H144z m0-64h456.32a96 96 0 0 1 96 96v417.376a96 96 0 0 1-96 96H144a96 96 0 0 1-96-96V288a96 96 0 0 1 96-96z" /></svg>