<?xml version="1.0" standalone="no"?><!DOCTYPE svg PUBLIC "-//W3C//DTD SVG 1.1//EN" "http://www.w3.org/Graphics/SVG/1.1/DTD/svg11.dtd"><svg class="icon" width="200px" height="200.00px" viewBox="0 0 1024 1024" version="1.1" xmlns="http://www.w3.org/2000/svg"><path fill="#333333" d="M336.929032 761.063226h-65.403871c-13.873548 0-25.104516-11.230968-25.104516-25.104516V176.392258c0-13.873548 11.230968-25.104516 25.104516-25.104516h457.827097c13.873548 0 25.104516 11.230968 25.104516 25.104516v559.566452c0 13.873548-11.230968 25.104516-25.104516 25.104516H646.771613v50.869677h82.580645c42.28129 0 75.974194-34.353548 76.634839-76.634838V176.392258c0-42.28129-34.353548-75.974194-76.634839-75.974193H271.525161c-42.28129 0-75.974194 34.353548-75.974193 75.974193v559.566452c0 42.28129 34.353548 75.974194 75.974193 76.634838H336.929032v-51.530322zM348.16 455.184516l114.952258-124.20129c9.909677-10.570323 23.122581-16.516129 37.656774-16.516129 13.873548 0 27.747097 5.945806 36.996129 16.516129l114.952258 124.20129c9.249032 10.570323 8.588387 26.425806-1.32129 35.674839-10.570323 9.249032-26.425806 9.249032-35.674839-1.32129L500.108387 365.336774 385.156129 489.538065c-9.249032 10.570323-25.765161 11.230968-35.674839 1.32129-10.570323-9.249032-11.230968-25.765161-1.32129-35.674839zM466.415484 345.517419v542.389678c0 13.873548 11.230968 25.104516 25.104516 25.104516s25.104516-11.230968 25.104516-25.104516V345.517419c0-13.873548-11.230968-25.104516-25.104516-25.104516s-25.104516 11.230968-25.104516 25.104516" /></svg>