<?xml version="1.0" standalone="no"?><!DOCTYPE svg PUBLIC "-//W3C//DTD SVG 1.1//EN" "http://www.w3.org/Graphics/SVG/1.1/DTD/svg11.dtd"><svg class="icon" width="200px" height="200.00px" viewBox="0 0 1024 1024" version="1.1" xmlns="http://www.w3.org/2000/svg"><path fill="#333333" d="M391.101935 560.887742l118.255484 124.861935-36.996129 35.014194-118.916129-124.861936c-9.909677-10.570323-9.249032-26.425806 0.660645-36.335483 10.570323-9.909677 27.086452-9.249032 36.996129 1.32129z m44.263226 124.20129L640.825806 475.003871c9.909677-9.909677 26.425806-10.570323 36.335484-0.660645s10.570323 25.765161 0.660645 36.335484l-205.460645 210.085161-36.996129-35.674839z m36.996129 35.674839l-36.335484-35.674839 36.335484 35.674839z m0 0l36.996129-35.014194-36.996129 35.014194zM358.069677 313.806452h290.023226c13.873548 0 25.765161 11.230968 25.765162 25.765161s-11.230968 25.765161-25.765162 25.765161H358.069677c-13.873548 0-25.765161-11.230968-25.765161-25.765161s11.891613-25.765161 25.765161-25.765161zM272.846452 126.183226V151.948387H733.316129c13.873548 0 25.765161 11.230968 25.765161 25.765161v665.930323c0 13.873548-11.230968 25.765161-25.765161 25.765161H272.846452c-13.873548 0-25.765161-11.230968-25.765162-25.765161V177.052903c0-13.873548 11.230968-25.765161 25.765162-25.765161V100.418065c-42.28129 0-76.634839 34.353548-76.634839 76.634838v665.930323c0 42.28129 34.353548 76.634839 76.634839 76.634839H733.316129c42.28129 0 76.634839-34.353548 76.634839-76.634839V177.052903c0-42.28129-34.353548-76.634839-76.634839-76.634838H272.846452v25.765161z" /></svg>