<?xml version="1.0" standalone="no"?><!DOCTYPE svg PUBLIC "-//W3C//DTD SVG 1.1//EN" "http://www.w3.org/Graphics/SVG/1.1/DTD/svg11.dtd"><svg t="1647858781912" class="icon" viewBox="0 0 1024 1024" version="1.1" xmlns="http://www.w3.org/2000/svg" p-id="1684" xmlns:xlink="http://www.w3.org/1999/xlink" width="200" height="200"><defs><style type="text/css">@font-face { font-family: feedback-iconfont; src: url("//at.alicdn.com/t/font_1031158_u69w8yhxdu.woff2?t=1630033759944") format("woff2"), url("//at.alicdn.com/t/font_1031158_u69w8yhxdu.woff?t=1630033759944") format("woff"), url("//at.alicdn.com/t/font_1031158_u69w8yhxdu.ttf?t=1630033759944") format("truetype"); }
</style></defs><path d="M902.4 678.4c-6.4-6.4-12.8-14.933333-19.2-21.333333-70.4-76.8-164.266667-130.133333-264.533333-151.466667 91.733333-42.666667 153.6-134.4 153.6-241.066667C774.4 119.466667 654.933333 0 509.866667 0 362.666667 0 243.2 119.466667 243.2 264.533333c0 106.666667 64 198.4 153.6 241.066667C170.666667 556.8 0 759.466667 0 1002.666667v21.333333h755.2c10.666667 0 21.333333-8.533333 21.333333-21.333333 0-10.666667-8.533333-21.333333-21.333333-21.333334H42.666667c10.666667-247.466667 215.466667-445.866667 467.2-445.866666 130.133333 0 256 55.466667 343.466666 151.466666 6.4 6.4 10.666667 12.8 17.066667 19.2 6.4 8.533333 19.2 10.666667 29.866667 4.266667 8.533333-8.533333 10.666667-21.333333 2.133333-32zM285.866667 264.533333C285.866667 142.933333 386.133333 42.666667 509.866667 42.666667s221.866667 100.266667 221.866666 221.866666c0 123.733333-100.266667 221.866667-221.866666 221.866667-123.733333 2.133333-224-98.133333-224-221.866667z" p-id="1685"></path><path d="M981.333333 930.133333h-170.666666c-10.666667 0-21.333333-10.666667-21.333334-21.333333v-4.266667c0-10.666667 10.666667-21.333333 21.333334-21.333333h170.666666c10.666667 0 21.333333 10.666667 21.333334 21.333333v4.266667c0 12.8-10.666667 21.333333-21.333334 21.333333z" p-id="1686"></path><path d="M919.466667 821.333333v170.666667c0 10.666667-10.666667 21.333333-21.333334 21.333333h-4.266666c-10.666667 0-21.333333-10.666667-21.333334-21.333333v-170.666667c0-10.666667 10.666667-21.333333 21.333334-21.333333h4.266666c12.8 0 21.333333 10.666667 21.333334 21.333333z" p-id="1687"></path></svg>