<?xml version="1.0" standalone="no"?><!DOCTYPE svg PUBLIC "-//W3C//DTD SVG 1.1//EN" "http://www.w3.org/Graphics/SVG/1.1/DTD/svg11.dtd"><svg t="1647861491218" class="icon" viewBox="0 0 1024 1024" version="1.1" xmlns="http://www.w3.org/2000/svg" p-id="2752" xmlns:xlink="http://www.w3.org/1999/xlink" width="200" height="200"><defs><style type="text/css">@font-face { font-family: feedback-iconfont; src: url("//at.alicdn.com/t/font_1031158_u69w8yhxdu.woff2?t=1630033759944") format("woff2"), url("//at.alicdn.com/t/font_1031158_u69w8yhxdu.woff?t=1630033759944") format("woff"), url("//at.alicdn.com/t/font_1031158_u69w8yhxdu.ttf?t=1630033759944") format("truetype"); }
</style></defs><path d="M482.084886 41.203836a58.080476 58.080476 0 0 1 59.830228 0l453.86308 272.340426c19.981038 11.966046 30.140889 34.091941 27.939588 55.822732v190.214971c0 20.432587-16.537978 36.970566-36.970566 36.970565-20.206813 0-36.631904-16.25576-36.970565-36.406129V444.32411l-80.149928 54.07298v212.453753c0 61.184875-23.932091 119.942674-66.659906 163.686474-75.747327 77.553522-173.507662 116.499614-290.85393 116.499614-117.346268 0-215.106603-38.946092-290.85393-116.499614a234.003925 234.003925 0 0 1-66.659905-161.880278V498.453533L25.6254 411.530372c-26.359167-17.779738-33.471062-53.395656-16.199317-79.924154l0.507993-0.790211c4.741263-7.055451 11.006504-12.925587 18.28773-17.328189L482.084886 41.203836z m313.487818 507.202293l-251.061184 169.443722a58.097409 58.097409 0 0 1-65.02304 0L228.427296 548.406129v162.501158c0 41.88116 16.368647 82.069011 45.606438 111.984125 61.467093 62.934627 140.0366 94.260831 237.966266 94.260831 97.929666 0 176.499173-31.326204 237.966266-94.260831a160.017639 160.017639 0 0 0 45.606438-110.742366V548.406129zM512 109.500606L87.656929 364.117738l424.343071 286.451328 424.343071-286.451328L512 109.500606z" p-id="2753"></path></svg>