<?xml version="1.0" standalone="no"?><!DOCTYPE svg PUBLIC "-//W3C//DTD SVG 1.1//EN" "http://www.w3.org/Graphics/SVG/1.1/DTD/svg11.dtd"><svg t="1647861444711" class="icon" viewBox="0 0 1024 1024" version="1.1" xmlns="http://www.w3.org/2000/svg" p-id="1889" xmlns:xlink="http://www.w3.org/1999/xlink" width="200" height="200"><defs><style type="text/css">@font-face { font-family: feedback-iconfont; src: url("//at.alicdn.com/t/font_1031158_u69w8yhxdu.woff2?t=1630033759944") format("woff2"), url("//at.alicdn.com/t/font_1031158_u69w8yhxdu.woff?t=1630033759944") format("woff"), url("//at.alicdn.com/t/font_1031158_u69w8yhxdu.ttf?t=1630033759944") format("truetype"); }
</style></defs><path d="M370.56 328.32m0 48l0 288q0 48-48 48l0 0q-48 0-48-48l0-288q0-48 48-48l0 0q48 0 48 48Z" p-id="1890"></path><path d="M273.92 616.32m48 0l283.52 0q48 0 48 48l0 0q0 48-48 48l-283.52 0q-48 0-48-48l0 0q0-48 48-48Z" p-id="1891"></path><path d="M785.28 640L611.2 526.08a32 32 0 0 0-49.28 26.88v223.36a32 32 0 0 0 49.28 26.88l174.08-112a32 32 0 0 0 0-51.2z" p-id="1892"></path><path d="M654.72 0H128a128 128 0 0 0-128 128v768a128 128 0 0 0 128 128h768a128 128 0 0 0 128-128V369.28a128 128 0 0 0-37.76-90.88L745.6 37.76A128 128 0 0 0 654.72 0z m276.48 867.2a64 64 0 0 1-64 64H156.8a64 64 0 0 1-64-64V157.44a64 64 0 0 1 64-64H576V320a128 128 0 0 0 128 128h227.2z m-198.4-512a64 64 0 0 1-64-64V93.44l261.76 261.76z" p-id="1893"></path></svg>