<?xml version="1.0" standalone="no"?><!DOCTYPE svg PUBLIC "-//W3C//DTD SVG 1.1//EN" "http://www.w3.org/Graphics/SVG/1.1/DTD/svg11.dtd"><svg t="1647861569359" class="icon" viewBox="0 0 1263 1024" version="1.1" xmlns="http://www.w3.org/2000/svg" p-id="4707" xmlns:xlink="http://www.w3.org/1999/xlink" width="246.6796875" height="200"><defs><style type="text/css">@font-face { font-family: feedback-iconfont; src: url("//at.alicdn.com/t/font_1031158_u69w8yhxdu.woff2?t=1630033759944") format("woff2"), url("//at.alicdn.com/t/font_1031158_u69w8yhxdu.woff?t=1630033759944") format("woff"), url("//at.alicdn.com/t/font_1031158_u69w8yhxdu.ttf?t=1630033759944") format("truetype"); }
</style></defs><path d="M528.299836 658.129008l0.981918 21.464723-12.683573 20.979375 38.897973 169.908252-54.953732 26.705359-54.953732-26.705359 38.892362-169.908252-12.683573-20.979375 0.976307-21.464723C496.985074 656.7936 504.085742 656.7936 528.299836 658.129008L528.299836 658.129008zM489.847934 67.581195l538.478115 0c16.810433 0 32.111518 6.873425 43.198773 17.960679 11.087255 11.045173 17.963485 26.346258 17.963485 43.198773l0 336.275989c0 16.768351-6.87623 32.06663-17.963485 43.159496l-0.047693 0.039277 0 0.047693c-11.134948 11.047978-26.38834 17.924208-43.153885 17.924208l-238.044932 0-84.223299 66.170038-30.024241 23.594082 5.76526-37.700033 7.005282-46.035112 29.895189 4.480351-1.240022 8.295803 138.06606-108.485085 18.715353 23.72594-45.415101 35.705337 199.486422 0c8.517436 0 16.232504-3.456351 21.821019-9.047671l0.047693-0.047693c5.549238-5.543627 9.008395-13.306389 9.008395-21.821019L1059.186323 128.743452c0-8.472548-3.459156-16.232504-9.056088-21.821019-5.633403-5.588515-13.351277-9.092559-21.821019-9.092559L489.847934 97.829874c-8.51463 0-16.277392 3.459156-21.865907 9.047671-5.588515 5.633403-9.047671 13.348471-9.047671 21.865907l0 21.997764-30.248679 0L428.685677 128.743452c0-16.810433 6.873425-32.06663 17.918597-43.153885l0.089775-0.044888C457.781304 74.457425 473.037501 67.581195 489.847934 67.581195L489.847934 67.581195zM676.039189 374.587616c10.374663-138.110948-9.092559-217.635068-174.660734-195.457753-56.190948 7.496241-117.221348-9.002784-152.037348 16.499025-43.776701 41.293852-46.879562 103.252866-34.995551 175.945644-2.623123 1.419573-5.277107 3.013085-7.891814 4.833841l-7.802038 5.277107-0.137468 9.359079c-0.401184 24.216899 2.623123 44.663233 9.140252 60.317808 5.9392 14.235003 14.678268 24.839715 26.385534 31.224986 13.9264 47.45749 33.935079 83.070247 58.95154 108.706718 27.274871 27.945381 60.096175 43.818784 97.212668 50.077808l3.33291 0.530236 3.327299-0.667704c41.114301-8.691375 73.935605-25.27737 100.107923-52.953425 24.256175-25.639277 42.357129-60.26731 55.663518-106.490389 11.266805-6.564822 19.694466-17.253699 25.414838-31.359649 6.253414-15.567605 9.134641-35.657644 8.736263-59.386389l-0.134663-9.359079-7.804844-5.277107C677.899222 375.740668 676.970608 375.165545 676.039189 374.587616L676.039189 374.587616zM273.629633 641.2288l-7.361578-0.044888-5.639014 4.878729c-39.652647 34.594367-62.890433 85.02286-76.412844 136.475353-13.037063 49.892647-16.94229 100.854181-17.702575 138.422356l-0.401184 19.918904 19.871211 0L802.17074 940.879255l17.475332 0 1.904921-17.475332c4.878729-45.238356-2.83634-102.545885-19.697271-155.058849-16.055759-50.161973-40.749589-96.730126-71.045962-125.343211l-5.942005-5.633403-8.026477 0.263715-94.603573 3.237523 0 38.984942 87.463627-2.976614c22.749633 24.306674 41.86617 62.130148 55.082784 103.390334 13.13806 40.889863 20.179814 84.621677 19.161425 121.519342-476.693041 0-90.072723 0-577.816548 0 1.593512-32.285458 5.807342-71.315288 15.834126-109.467003 11.087255-42.354323 29.314455-83.47143 59.03851-112.067682l79.299682 0.706981 0-38.94286L273.629633 641.2288zM873.662773 322.251397 873.662773 345.270356 999.760658 345.270356 999.760658 322.251397ZM740.570827 322.251397 740.570827 345.270356 853.66251 345.270356 853.66251 322.251397ZM936.199715 244.323595 936.199715 267.342553 999.760658 267.342553 999.760658 244.323595ZM885.156822 244.323595 885.156822 267.342553 910.700712 267.342553 910.700712 244.323595ZM811.086553 244.323595 811.086553 267.342553 862.179945 267.342553 862.179945 244.323595ZM740.570827 244.323595 740.570827 267.342553 791.574444 267.342553 791.574444 244.323595ZM740.570827 172.250827 740.570827 195.269786 999.763463 195.269786 999.763463 172.250827ZM335.100493 408.071014c0.799562 11.752153 2.794258 21.644274 6.034586 29.364953 3.234718 7.846926 7.670181 12.905205 13.303584 14.633381l9.577907 2.973808 2.620318 9.667682c12.332888 45.459989 30.069129 78.545008 52.296942 101.34514 20.712855 21.209425 45.63954 33.61806 73.935605 38.984942 32.1536-7.313885 57.700296-20.443529 77.835222-41.686619 21.332866-22.530805 37.253962-54.687211 49.146389-99.041841l2.48846-9.224416 9.047671-3.195441c5.501545-1.907726 9.847233-7.095058 13.039868-14.944789 3.060778-7.670181 5.007781-17.340668 5.804537-28.787025-5.279912 0.047693-10.643989 0.179551-16.765545 0.931419l-2.437962-8.203222-5.190137 0.311408-2.979419-15.747156c-2.30891-12.285195-5.857841-23.681052-10.461633-34.151101-13.842236 5.855036-29.364953-4.923616-43.375518-12.994981l-7.095058 22.264285-11.446356-1.506542 1.509348-13.57291-12.063562 19.383058-10.733764-2.129359 10.559825-28.739332 0 0c-59.122674 52.465271-128.269326 49.09589-166.811003 19.781436-1.240022 2.971003-2.395879 6.031781-3.45074 9.134641-2.6624 10.646795-5.639014 24.483419-8.295803 35.040438l-0.715397 3.857534-0.266521-0.044888c-0.575123 2.129359-1.108164 3.989392-1.641205 5.633403C353.731682 404.213479 343.884449 406.738411 335.100493 408.071014L335.100493 408.071014z" p-id="4708"></path></svg>